
<svg xmlns="http://www.w3.org/2000/svg" width="1875" height="1250" preserveAspectRatio="none" style="display: block;" version="1.1" viewBox="0 0 2048 1365"><path fill="rgb(3,134,110)" d="m1440.9 36.814 319.83-.148 107.29.045c18.62.026 40.65-.447 59.11.376 2 144.263-.86 289.097.37 433.421.15 17.422.37 35.677 0 53.042l-.94-.741c-22.76-18.148-147.27-155.243-157.27-157.573-5.45.927-83.92 81.466-94.48 92.062l-139.83 139.528a9027 9027 0 0 0-88.16 88.73c-10.1 10.383-34.55 35.074-42.43 46.29-.33.471-.65.948-.97 1.429 5.34 10.133 27.06 36.059 35.29 46.261a8006 8006 0 0 0 77.6 94.625 32007 32007 0 0 1 280.68 343.489l73.66 90.16c6.67 8.15 28.78 34.04 33.78 41.91-85.54 2.48-172.46-.93-258.16.43-16.59.27-34.53.4-51.1-.26-9.17-9.75-21.89-27.93-30.72-39.12q-27.6-34.53-55.77-68.58a29240 29240 0 0 0-205.9-248.547c-10.78-12.913-63.79-78.261-72.38-84.121-10.4 8.385-23.21 21.842-32.93 31.513l-53.04 52.892-177.798 178.653c-32.318 32.51-68.933 70.15-104.491 98.36-86.41 68.56-186.549 93.28-295.343 81.16-126.142-14.05-223.089-82.68-300.742-179.59a494 494 0 0 1-45.011-67.5c-24.944-45.48-57.349-130.511-66.622-181.525-1.64-12.332-6.298-30.095-8.464-43.39-7.759-47.621-9.323-79.489-4.037-127.374-.654-16.822 5.895-48.912 8.209-66.196 27.905-208.46 167.369-392.463 360.718-475.164 61.301-26.22 125.892-38.548 192.761-45.252 23.57-2.838 53.735-2.689 77.62-1.629 5.61.371 12.883.455 17.994 2.384 16.917-.014 27.996 1.284 44.897 3.439 23.011 1.331 47.984 6.588 70.617 11.593 88.032 19.47 177.842 63.678 239.302 130.609 3.03 3.29 5.67 6.619 8.09 10.398-12.33 13.701-166.081 168.332-167.31 168.749-4.996-1.757-16.23-14.566-21.618-19.422a308.4 308.4 0 0 0-44.806-33.017c-62.884-37.746-132.904-46.54-204.979-42.312-71.991 4.224-122.627 22.143-181.332 63.581-29.435 22.272-53.546 42.464-77.485 71.08-9.33 11.154-17.543 24.496-26.033 34.744l-.326.707c-3.488 7.386-8.441 14.49-12.438 21.687-50.738 91.343-59.708 219.151-33.95 319.137 5.502 18.103 12.326 38.364 20.913 55.295 26.087 51.438 69.093 106.978 120.614 134.468a166.35 166.35 0 0 0 126.649 12.68 47 47 0 0 0 3.091-1.06c5.172-1.85 10.391-3.85 15.551-5.76 56.423-24.45 105.427-82.06 148.374-125.81l152.744-155.785c22.031-23.06 45.191-45.444 67.491-68.355l393.02-398.092c30.52-31.115 61.27-62.245 92.19-92.934 10.49-10.412 58.69-57.527 61.25-68.748-5-10.456-55.25-58.884-66.04-69.709z"/><path fill="rgb(5,90,63)" d="M421.163 1303.83c4.943 1.43 29.4 15.45 37.425 18.34 30.025 10.81 55.966 18.88 87.662 23.53 4.347.64 9.931 2.85 13.699 3.2 21.033 1.9 42.472 1.56 63.499 1.67 19.658.11 40.068.06 59.463-2.95 66.24-10.29 133.318-40.76 184.318-84.22 22.443-19.13 47.327-44.86 68.395-65.63 19.931-19.66 41.091-38.58 59.698-59.24 4.718-5.25 12.698-10.99 17.568-16.12 10.07-10.59 21.56-20.92 31.71-31.14l128.11-128.685c8.69-8.617 49.55-52.22 57.69-53.063-10.4 8.385-23.21 21.842-32.93 31.513l-53.04 52.892-177.798 178.653c-32.318 32.51-68.933 70.15-104.491 98.36-86.41 68.56-186.549 93.28-295.343 81.16-126.142-14.05-223.089-82.68-300.742-179.59a494 494 0 0 1-45.011-67.5c-24.944-45.48-57.349-130.511-66.622-181.525l2.851-1.283c3.727 13.199 6.576 31.099 10.494 43.199 21.415 66.129 46.375 132.389 87.906 188.859 7.298 9.92 19.563 26.45 28.14 34.56 3.519 2.32 43.354 43.96 44.346 47.18 3.538 2.59 13.815 11.75 17.757 15.33 7.151 6.48 16.64 13.08 23.244 18.95 9.574 7.31 41.545 30.09 52.002 33.55"/><path fill="rgb(8,80,29)" d="M283.814 1188.82c3.519 2.32 43.354 43.96 44.346 47.18-6.206-3.9-41.209-39.7-44.346-47.18m379.306-79.6c2.572.42 2.477.36 4.728 1.65l-.683 1.16c-4.566 2.43-8.442 3.49-13.476 4.62-40.383 9.13-80.581 6.85-117.604-13.62-61.425-33.97-110.644-97.55-136.033-162.434-3.642-9.308-8.712-21.226-9.729-31.24l1.53-1.519c5.502 18.103 12.326 38.364 20.913 55.295 26.087 51.438 69.093 106.978 120.614 134.468a166.35 166.35 0 0 0 126.649 12.68 47 47 0 0 0 3.091-1.06"/><path fill="rgb(5,90,63)" d="M979.789 821.865c-.014 1.79-.288 3.979-1.603 5.329-48.71 49.993-97.48 100.42-146.915 149.681-42.082 41.935-93.804 104.835-148.876 127.995-2.74-.27-1.548.2-3.724-1.41 56.423-24.45 105.427-82.06 148.374-125.81z"/><path fill="rgb(8,80,29)" d="M141.922 752.721c4.534 11.369-.503 70.47 1.132 83.19 2.974 23.13 8.25 65.555 14.22 86.291l-2.851 1.283c-1.64-12.332-6.298-30.095-8.464-43.39-7.759-47.621-9.323-79.489-4.037-127.374"/><path fill="rgb(7,125,77)" d="m438.567 566.306.052-2.804c17.515-31.367 70.772-85.699 101.809-103.66l1.657.64c-29.435 22.272-53.546 42.464-77.485 71.08-9.33 11.154-17.543 24.496-26.033 34.744m265.043-400.197c23.57-2.838 53.735-2.689 77.62-1.629-20.731 1.575-42.107 3.608-62.85 5.137-5.004.369-10.272-1.335-14.77-3.508m140.511 4.194c-5.428 3.99-20.316.005-27.623-.271-7.469-.282-36.128 1.375-40.876-2.652 4.627-.487 16.928-.075 23.602-.516 16.917-.014 27.996 1.284 44.897 3.439"/><path fill="rgb(8,80,29)" d="M369.161 1270.28c6.465.28 29.96 19.47 38.171 23.4 3.277 1.57 11.859 6.99 13.831 10.15-10.457-3.46-42.428-26.24-52.002-33.55"/></svg>
